inDegrees=no
num_controls=7
num_derivatives=13
num_iterations=94
num_multipliers=7
num_parameters=0
num_slacks=7
num_states=26
objective=0.517065
objective_accelerations=0.039150
objective_balance=0.002144
objective_effort=0.043473
objective_height=0.420644
objective_ligament=0.011654
solver_duration=1261.869474
status=Solve_Succeeded
success=true
DataType=double
version=3
OpenSimVersion=4.5
endheader
time	/jointset/ground_pelvis/pelvis_tilt/value	/jointset/ground_pelvis/pelvis_tx/value	/jointset/ground_pelvis/pelvis_ty/value	/jointset/hip_l/hip_flexion_l/value	/jointset/hip_l/hip_adduction_l/value	/jointset/hip_l/hip_rotation_l/value	/jointset/back/lumbar_extension/value	/jointset/patellofemoral_l/patellar_flexion_l/value	/jointset/knee_l/knee_flexion_l/value	/jointset/knee_l/knee_adduction_l/value	/jointset/knee_l/knee_rotation_l/value	/jointset/ankle_l/ankle_angle_l/value	/jointset/subtalar_l/subtalar_angle_l/value	/jointset/ground_pelvis/pelvis_tilt/speed	/jointset/ground_pelvis/pelvis_tx/speed	/jointset/ground_pelvis/pelvis_ty/speed	/jointset/hip_l/hip_flexion_l/speed	/jointset/hip_l/hip_adduction_l/speed	/jointset/hip_l/hip_rotation_l/speed	/jointset/back/lumbar_extension/speed	/jointset/patellofemoral_l/patellar_flexion_l/speed	/jointset/knee_l/knee_flexion_l/speed	/jointset/knee_l/knee_adduction_l/speed	/jointset/knee_l/knee_rotation_l/speed	/jointset/ankle_l/ankle_angle_l/speed	/jointset/subtalar_l/subtalar_angle_l/speed	/forceset/tau_hip_flexion_l	/forceset/tau_hip_adduction_l	/forceset/tau_hip_rotation_l	/forceset/tau_knee_flexion_l	/forceset/tau_ankle_angle_l	/forceset/tau_subtalar_angle_l	/forceset/tau_lumbar_extension	lambda_cid13_p0	lambda_cid13_p1	lambda_cid13_p2	lambda_cid13_p3	lambda_cid13_p4	lambda_cid13_p5	lambda_cid14_p0	/jointset/ground_pelvis/pelvis_tilt/accel	/jointset/ground_pelvis/pelvis_tx/accel	/jointset/ground_pelvis/pelvis_ty/accel	/jointset/hip_l/hip_flexion_l/accel	/jointset/hip_l/hip_adduction_l/accel	/jointset/hip_l/hip_rotation_l/accel	/jointset/back/lumbar_extension/accel	/jointset/patellofemoral_l/patellar_flexion_l/accel	/jointset/knee_l/knee_flexion_l/accel	/jointset/knee_l/knee_adduction_l/accel	/jointset/knee_l/knee_rotation_l/accel	/jointset/ankle_l/ankle_angle_l/accel	/jointset/subtalar_l/subtalar_angle_l/accel	gamma_cid13_p0	gamma_cid13_p1	gamma_cid13_p2	gamma_cid13_p3	gamma_cid13_p4	gamma_cid13_p5	gamma_cid14_p0
1	-0.1540280941850883	-0.08611713418007251	0.7302250723594748	1.240382164627842	-0.3285726794181846	-0.002840922050652178	-0.9599271436030521	1.159606205686445	1.159606205686353	-0.08175145747508669	-0.1743906151379657	0.1520091644841247	0.01453400293046125	0.1095903178085299	0.02687516114408829	0.06646003443051372	-0.2946207301392519	0.0007045184444436486	-0.06396293300649156	-0.002262535773984632	-0.1621305393758955	-0.1621305393758925	0.002296018336168854	0.000164228215026221	0.01490180176216013	0.00728214774852645	-0.3962444534973409	0.04090602218899157	-0.005246383702416322	-0.2914811530619553	0.09915451196817213	0.02448850798599374	0.4346176220246172	-18.81405091552271	-6.63526662219448	-0.2027587367939974	6.071674123590685	-785.8752379795081	-51.94301640858177	-1.813217879532327	0.9691452575544039	0.1712174931044994	1.231078412947698	-4.534406747044145	-0.004950406500286473	-1.406243893302451	0.4004552277184689	-4.142195951200441	-4.142195951200479	-0.1991861325501539	0.004956947775666978	-0.8487129950798766	-0.2953128832063372	-8.895033518207185e-09	-8.544022041857664e-09	3.525799835121545e-08	3.856034316740078e-09	-2.119318531401761e-08	5.022141680894041e-08	-1.013326289310028e-08
1.01	-0.1528838119839015	-0.0858397407295982	0.7309510339011056	1.237209803263707	-0.3285652904147953	-0.003550980807920301	-0.9599292930411663	1.157778347579455	1.157778347579254	-0.08173730899956043	-0.1743881016563029	0.1521160475594785	0.01459285595446014	0.1193020052813296	0.02861368011071587	0.07872397596776304	-0.3398730570129686	0.0007792142789478138	-0.07803888091006776	0.001825333567641441	-0.2034171467191373	-0.2034171467191358	0.000534588127174301	0.0003362869108934937	0.006487093621500645	0.004499519071502411	-0.395556946805051	0.04111294286444027	-0.00528101708875579	-0.2911011306907959	0.09896276342507609	0.02456683659601522	0.4343419538751541	-18.8405862948947	-6.674010061023346	-0.1858775109636732	5.907379205675626	-785.4942070771277	-51.98281123503054	-1.851715331531355	0.9775614796531246	0.1766933088380759	1.222802082697249	-4.523874887367681	0.01456812116199133	-1.406791836926764	0.4118556792300243	-4.118300129106347	-4.118300129106439	-0.1644920550903596	0.02301462790400374	-0.8360087495923995	-0.2680816126939213	-1.347349183149936e-08	-1.57745863866208e-08	4.846390329015894e-08	7.643536693567038e-09	-2.621054140461802e-08	5.713329126194181e-08	-1.34730695986348e-08
1.02	-0.1516413367104872	-0.08554465724737806	0.7317993848698261	1.23358427278493	-0.328556976744503	-0.004401503363847129	-0.9598907832115532	1.155538341998389	1.15553834199804	-0.08174074894414018	-0.1743839307281945	0.1521391517482186	0.01462421394114017	0.1292289322545674	0.03041316749325465	0.09093791984843895	-0.3852545530799339	0.0008894518229050786	-0.09205569273530752	0.005869318583165217	-0.2445600341911914	-0.2445600341911912	-0.001221665682472363	0.000495717503229619	-0.001853975560499865	0.001783140284736204	-0.3948694401125183	0.04131986353989241	-0.00531565047507295	-0.2907211083196289	0.09877101488193567	0.02464516520602414	0.4340662857259114	-18.87796513855911	-6.711060885913016	-0.1690307989645332	5.781749999179477	-785.2596693812992	-52.01593015818911	-1.899434749213675	1.012193157641949	0.183411176286758	1.221078881633022	-4.560240585693895	0.002157935390333494	-1.394416677635169	0.391678362504569	-4.113451976962899	-4.113451976962891	-0.1981508526805817	0.002431327069432833	-0.8339852033480575	-0.2820629051547671	-1.776793286286396e-08	-2.490485855112263e-08	5.987149014158923e-08	1.064595757065682e-08	-3.103685772965244e-08	6.110253467178947e-08	-1.659841195786455e-08
1.03	-0.1502992178679139	-0.08523113685542374	0.7327695504376567	1.229504917204437	-0.3285473732453309	-0.00539183368756084	-0.9598103020418264	1.152887625845546	1.152887625845569	-0.08176179198684121	-0.1743782156493411	0.1520792819755027	0.01462877759907305	0.1391617703929652	0.03231509211309808	0.1030796888332931	-0.4305766423663259	0.001037574225279133	-0.1059980343443395	0.01039368836769824	-0.2855595090404507	-0.2855595090404458	-0.002990240252223833	0.0006438059663853559	-0.01010037207555979	-0.0008560054462017751	-0.3951049608440795	0.04170172274080428	-0.005359962386383624	-0.2899786295725837	0.09855858015289082	0.02479455055579425	0.4349627586150245	-18.94195013878031	-6.78080572851389	-0.1395556705386173	5.380451065757594	-785.5805827155568	-52.04550393705614	-1.956664365161479	0.9788674821494712	0.1972130334247421	1.208392972786497	-4.512207715835856	0.02208587418521732	-1.392310483840601	0.5078322429607591	-4.089638175187571	-4.089638175186912	-0.1667166007098385	0.0204902353986424	-0.8170281168808285	-0.2526826381276763	-2.205947575869869e-08	-3.405451548929528e-08	7.126072680845304e-08	1.3640367412035e-08	-3.586122466932394e-08	6.504175123425799e-08	-1.97215659053973e-08
